<?xml version="1.0" encoding="UTF-8"?>
<svg id="Layer_1" xmlns="http://www.w3.org/2000/svg" version="1.1" viewBox="0 0 218.6 124.96">
  <!-- Generator: Adobe Illustrator 29.5.1, SVG Export Plug-In . SVG Version: 2.1.0 Build 141)  -->
  <path fill="currentColor" stroke="none" vector-effect="non-scaling-stroke" d="M218.6,0l-32.5,124.02-.27.96h-34.32s-10.62-23.55-10.62-23.55h-63.19l-10.62,23.54h-34.34s-.24-.95-.24-.95L0,0h30.27l16.28,75.05c1.3,6.31,1.7,8.64,2.44,14.82L92.4,0h33.81l43.41,89.87c.74-6.17,1.14-8.5,2.44-14.82L188.33,0h30.27M87.8,79.3h43.01l-18.59-40.89c-.88-1.59-1.59-3.36-2.12-4.96-.34-1.02-.6-2.05-.8-3.12-.2,1.07-.46,2.1-.8,3.12-.53,1.59-1.24,3.36-2.12,4.96l-18.59,40.89M225.08-5h-40.78l-.85,3.94-16.18,74.58L130.71-2.17l-1.36-2.83h-40.08l-1.36,2.83-36.56,75.69L35.15-1.06l-.85-3.94H-6.48l1.64,6.27L27.66,125.28l.24.93.96,3.76h3.88s34.34-.01,34.34-.01h3.23s1.33-2.94,1.33-2.94l9.29-20.6h56.73l9.29,20.6,1.33,2.94h3.23s34.32.01,34.32.01h3.78s1.03-3.63,1.03-3.63l.27-.96v-.05s.03-.05.03-.05L223.44,1.27l1.64-6.27h0ZM95.56,74.3l13.74-30.23,13.74,30.23h-27.48Z"/>
</svg>