<?xml version="1.0" encoding="UTF-8"?>
<svg id="Layer_1" xmlns="http://www.w3.org/2000/svg" version="1.1" viewBox="0 0 360 360">
  <path d="M324.318,97.077l-43.324,165.357h-45.441l-14.053-31.15h-83.618l-14.053,31.15h-45.455L35.048,97.077h40.056l24.759,118.923,57.444-118.923h44.74l57.444,118.923,24.772-118.923h40.056M324.706,96.777h-40.688l-.05.239-24.592,118.059-57.06-118.129-.082-.17h-45.117l-.082.17-57.06,118.128-24.579-118.059-.05-.239h-40.688l.098.376,43.324,165.357.059.224h45.88l.08-.177,13.974-30.973h83.231l13.974,30.973.08.177h45.867l.059-.224,43.324-165.357.099-.376h0Z" fill="#303028"/>
  <path d="M179.683,138.064c2.862,7.108,25.493,58.009,28.002,63.649h-56.004c2.508-5.64,25.14-56.542,28.002-63.649M179.683,137.213c-.265,1.416-28.464,64.801-28.464,64.801h56.928s-28.199-63.385-28.464-64.801h0Z" fill="#303028"/>
</svg>
